<svg id="Layer_1" data-name="Layer 1" xmlns="http://www.w3.org/2000/svg" viewBox="0 0 28.97 14.97"><defs><style>.cls-1{fill:#eea7af;}.cls-2{fill:none;stroke:#eea7af;stroke-miterlimit:10;stroke-width:0.8px;}</style></defs><path class="cls-1" d="M7.14,17.2H6.45L4.19,14.73V17.2H3.62V12.32h.57v2.36l2.2-2.36H7L4.88,14.69Z" transform="translate(-0.36 -7.27)"/><path class="cls-1" d="M8.11,17.27a2.16,2.16,0,0,1-.65-.1v-.56a1.45,1.45,0,0,0,.63.15.94.94,0,0,0,.59-.17A1.7,1.7,0,0,0,9.13,16l-1.9-3.64h.62L9.3,15.09c0,.11.09.22.13.32h0c.06-.18.11-.3.13-.35l1.2-2.74h.6L9.82,15.81a4.17,4.17,0,0,1-.5.91,1.44,1.44,0,0,1-.51.42A1.78,1.78,0,0,1,8.11,17.27Z" transform="translate(-0.36 -7.27)"/><path class="cls-1" d="M15.69,17.2h-.56V12.82H12.62V17.2h-.57V12.32h3.64Z" transform="translate(-0.36 -7.27)"/><path class="cls-1" d="M21.27,14.75a2.74,2.74,0,0,1-.59,1.85,2.1,2.1,0,0,1-1.65.67,2.1,2.1,0,0,1-1.66-.66,2.71,2.71,0,0,1-.59-1.86,2.69,2.69,0,0,1,.59-1.85A2.12,2.12,0,0,1,19,12.24a2.09,2.09,0,0,1,1.64.67A2.66,2.66,0,0,1,21.27,14.75Zm-3.89,0a2.29,2.29,0,0,0,.43,1.51,1.49,1.49,0,0,0,1.22.51,1.5,1.5,0,0,0,1.23-.51,2.39,2.39,0,0,0,.41-1.51,2.36,2.36,0,0,0-.41-1.49A1.48,1.48,0,0,0,19,12.75a1.5,1.5,0,0,0-1.23.51A2.24,2.24,0,0,0,17.38,14.75Z" transform="translate(-0.36 -7.27)"/><path class="cls-1" d="M26.07,17.2H25.5V14.9H22.93v2.3h-.57V12.32h.57V14.4H25.5V12.32h.57Z" transform="translate(-0.36 -7.27)"/><path class="cls-2" d="M25.65,21.84H20.28a5.06,5.06,0,0,1-2.41-.6l-1.6-.85a4.14,4.14,0,0,0-2.86,0l-2.06,1a5.14,5.14,0,0,1-2.21.5H4A3.28,3.28,0,0,1,.76,18.56V11A3.28,3.28,0,0,1,4,7.67H9A5.19,5.19,0,0,1,11,8.11L13.48,9.2a4.09,4.09,0,0,0,2.72,0l2-1a5.2,5.2,0,0,1,2.26-.52h5.2A3.28,3.28,0,0,1,28.93,11v7.61A3.28,3.28,0,0,1,25.65,21.84Z" transform="translate(-0.36 -7.27)"/></svg>