<?xml version="1.0" encoding="utf-8"?>
<!-- Generator: Adobe Illustrator 26.1.0, SVG Export Plug-In . SVG Version: 6.00 Build 0)  -->
<svg version="1.1" id="Layer_1" xmlns="http://www.w3.org/2000/svg" xmlns:xlink="http://www.w3.org/1999/xlink" x="0px" y="0px"
	 viewBox="0 0 57.9 29" style="enable-background:new 0 0 57.9 29;" xml:space="preserve">
<style type="text/css">
	.st0{fill:none;stroke:#EF8998;stroke-width:0.8;stroke-miterlimit:10;}
	.st1{fill:#EF8998;}
</style>
<path class="st0" d="M54.1,28.6H34.4c-0.8,0-1.7-0.2-2.4-0.6l-1.6-0.9c-0.9-0.3-1.9-0.3-2.9,0l-2.1,1c-0.7,0.3-1.4,0.5-2.2,0.5H4.1
	c-1.8,0-3.3-1.5-3.2-3.3c0,0,0,0,0,0V3.7c0-1.8,1.4-3.3,3.2-3.3c0,0,0,0,0,0h19c0.7,0,1.4,0.2,2,0.4l2.5,1.1c0.9,0.3,1.8,0.3,2.7,0
	l2-1c0.7-0.3,1.5-0.5,2.3-0.5h19.5c1.8,0,3.3,1.5,3.3,3.3c0,0,0,0,0,0.1v21.6C57.3,27.1,55.9,28.6,54.1,28.6z"/>
<g>
	<path class="st1" d="M13.8,19.3h-1.4l-4.5-4.9v4.9H6.8V9.6h1.1v4.7l4.4-4.7h1.3l-4.3,4.7L13.8,19.3z"/>
	<path class="st1" d="M15.9,19.5c-0.4,0-0.9-0.1-1.3-0.2v-1.1c0.4,0.2,0.8,0.3,1.3,0.3c0.4,0,0.8-0.1,1.2-0.3
		c0.4-0.4,0.7-0.8,0.9-1.3L14,9.6h1.3l2.9,5.5c0.1,0.2,0.2,0.4,0.3,0.6l0,0c0.1-0.2,0.2-0.5,0.3-0.7L21,9.6h1.2l-3,7.1
		c-0.3,0.6-0.7,1.2-1.1,1.7c-0.3,0.3-0.6,0.6-1,0.8C16.7,19.4,16.3,19.5,15.9,19.5z"/>
	<path class="st1" d="M30.4,19.4h-1.1v-8.7h-5v8.7h-1.1V9.6h7.3V19.4z"/>
	<path class="st1" d="M41.5,14.5c0.1,1.3-0.3,2.6-1.2,3.7c-0.8,0.9-2,1.4-3.3,1.3c-1.2,0.1-2.5-0.4-3.3-1.3c-0.8-1-1.3-2.4-1.2-3.7
		c-0.1-1.3,0.3-2.6,1.2-3.7c0.9-0.9,2.1-1.4,3.4-1.3c1.2-0.1,2.4,0.4,3.3,1.3C41.3,11.9,41.7,13.2,41.5,14.5z M33.8,14.5
		c-0.1,1.1,0.2,2.1,0.9,3c0.6,0.7,1.5,1.1,2.4,1c0.9,0.1,1.8-0.3,2.5-1c0.6-0.9,0.9-1.9,0.8-3c0.1-1-0.2-2.1-0.8-2.9
		c-0.6-0.7-1.5-1.1-2.4-1c-0.9-0.1-1.8,0.3-2.5,1C34,12.4,33.7,13.4,33.8,14.5z"/>
	<path class="st1" d="M51,19.4h-1.1v-4.6h-5.1v4.6h-1.1V9.6h1.1v4.1h5.1V9.6H51V19.4z"/>
</g>
</svg>
