<svg id="Layer_1" data-name="Layer 1" xmlns="http://www.w3.org/2000/svg" viewBox="0 0 28.97 14.97"><defs><style>.cls-1{fill:#eea7af;}.cls-2{fill:none;stroke:#eea7af;stroke-miterlimit:10;stroke-width:0.8px;}</style></defs><path class="cls-1" d="M14.07,13.56a1.62,1.62,0,0,1-.59,1.34,2.71,2.71,0,0,1-1.7.46h-.67v2.25h-.66V11.9h1.48C13.36,11.9,14.07,12.45,14.07,13.56Zm-3,1.23h.6A2.25,2.25,0,0,0,13,14.51a1.06,1.06,0,0,0,.39-.91,1,1,0,0,0-.37-.85,2,2,0,0,0-1.16-.28h-.74Z" transform="translate(-0.36 -7.27)"/><path class="cls-1" d="M18.53,11.9h.71l-2.06,5.71h-.65L14.48,11.9h.7l1.32,3.7a8.82,8.82,0,0,1,.35,1.23,12,12,0,0,1,.37-1.26Z" transform="translate(-0.36 -7.27)"/><rect class="cls-2" x="0.4" y="0.4" width="28.17" height="14.17" rx="3.28"/></svg>