<svg id="Layer_1" data-name="Layer 1" xmlns="http://www.w3.org/2000/svg" viewBox="0 0 28.97 28.97"><defs><style>.cls-1{fill:none;stroke:#eea7af;stroke-miterlimit:10;stroke-width:0.8px;}.cls-2{fill:#eea7af;}</style></defs><path class="cls-1" d="M25.65,28.84H20.28a5.06,5.06,0,0,1-2.41-.6l-1.6-.85a4.14,4.14,0,0,0-2.86,0l-2.06,1a5.14,5.14,0,0,1-2.21.5H4A3.28,3.28,0,0,1,.76,25.57V4A3.28,3.28,0,0,1,4,.67H9A5.19,5.19,0,0,1,11,1.11L13.48,2.2a4.09,4.09,0,0,0,2.72,0l2-1A5.2,5.2,0,0,1,20.45.67h5.2A3.28,3.28,0,0,1,28.93,4V25.57A3.28,3.28,0,0,1,25.65,28.84Z" transform="translate(-0.36 -0.27)"/><path class="cls-2" d="M14.81,13.57H14l-2.64-2.89v2.89H10.7V7.86h.66v2.77l2.57-2.77h.77l-2.53,2.77Z" transform="translate(-0.36 -0.27)"/><path class="cls-2" d="M16,13.65a2.2,2.2,0,0,1-.76-.12v-.65a1.63,1.63,0,0,0,.74.17,1.15,1.15,0,0,0,.69-.19,2.09,2.09,0,0,0,.51-.75L14.91,7.86h.74l1.68,3.25a2,2,0,0,1,.16.37h0a3.36,3.36,0,0,1,.15-.41l1.4-3.21h.7L18,12A5.8,5.8,0,0,1,17.36,13a1.9,1.9,0,0,1-.59.49A2,2,0,0,1,16,13.65Z" transform="translate(-0.36 -0.27)"/><path class="cls-2" d="M10.91,21.57h-.67V16.45H7.31v5.12H6.65V15.86h4.26Z" transform="translate(-0.36 -0.27)"/><path class="cls-2" d="M17.43,18.71a3.14,3.14,0,0,1-.69,2.15,2.41,2.41,0,0,1-1.93.79,2.46,2.46,0,0,1-1.94-.77,3.17,3.17,0,0,1-.69-2.18,3.11,3.11,0,0,1,.69-2.16,2.49,2.49,0,0,1,2-.77,2.43,2.43,0,0,1,1.92.78A3.15,3.15,0,0,1,17.43,18.71Zm-4.55,0a2.71,2.71,0,0,0,.5,1.76,1.75,1.75,0,0,0,1.43.6,1.75,1.75,0,0,0,1.44-.6,2.78,2.78,0,0,0,.48-1.76A2.74,2.74,0,0,0,16.25,17a1.73,1.73,0,0,0-1.43-.6,1.79,1.79,0,0,0-1.44.6A2.7,2.7,0,0,0,12.88,18.71Z" transform="translate(-0.36 -0.27)"/><path class="cls-2" d="M23,21.57h-.66V18.88h-3v2.69h-.66V15.86h.66v2.43h3V15.86H23Z" transform="translate(-0.36 -0.27)"/></svg>