<svg id="Layer_1" data-name="Layer 1" xmlns="http://www.w3.org/2000/svg" viewBox="0 0 28.97 28.97"><defs><style>.cls-1{fill:none;stroke:#eea7af;stroke-miterlimit:10;stroke-width:0.8px;}.cls-2{fill:#eea7af;}</style></defs><rect class="cls-1" x="0.4" y="0.4" width="28.17" height="28.17" rx="3.28"/><path class="cls-2" d="M13.62,12.76a2.82,2.82,0,0,1-1,2.34,4.75,4.75,0,0,1-3,.81H8.45v3.93H7.28v-10h2.6Q13.61,9.85,13.62,12.76ZM8.45,14.92h1a3.92,3.92,0,0,0,2.24-.5,1.84,1.84,0,0,0,.69-1.6,1.75,1.75,0,0,0-.65-1.48,3.42,3.42,0,0,0-2-.48H8.45Z" transform="translate(-0.49 -0.36)"/><path class="cls-2" d="M21.42,9.85h1.25l-3.6,10H17.92l-3.58-10h1.23l2.3,6.47a19.91,19.91,0,0,1,.63,2.16,16.59,16.59,0,0,1,.64-2.2Z" transform="translate(-0.49 -0.36)"/></svg>